<?xml version="1.0" standalone="no"?>
<!DOCTYPE svg PUBLIC "-//W3C//DTD SVG 20010904//EN"
 "http://www.w3.org/TR/2001/REC-SVG-20010904/DTD/svg10.dtd">
<svg version="1.0" xmlns="http://www.w3.org/2000/svg"
 width="655.000000pt" height="463.000000pt" viewBox="0 0 655.000000 463.000000"
 preserveAspectRatio="xMidYMid meet">
<metadata>
Created by potrace 1.16, written by Peter Selinger 2001-2019
</metadata>
<g transform="translate(0.000000,463.000000) scale(0.100000,-0.100000)"
fill="#000000" stroke="none">
<path d="M3504 3839 c-4 -6 -10 -26 -14 -45 -6 -27 -4 -36 17 -56 28 -26 78
-106 71 -114 -3 -2 -11 9 -18 25 -16 40 -100 117 -153 141 -65 30 -176 27
-247 -6 -30 -14 -69 -37 -86 -52 -16 -15 -11 -8 13 15 53 51 115 73 207 73 55
0 83 -6 125 -25 30 -14 55 -24 57 -22 10 10 -26 39 -51 42 -17 1 -55 8 -86 14
-92 19 -200 -14 -278 -84 -22 -21 -41 -32 -41 -27 0 6 -20 23 -45 38 -38 22
-48 24 -61 13 -13 -11 -19 -9 -34 11 -11 15 -23 21 -34 17 -19 -7 -20 -31 -5
-76 13 -38 6 -50 -16 -27 -47 47 -86 -19 -51 -87 14 -25 13 -26 -2 -18 -22 11
-152 19 -152 9 0 -4 -10 -8 -22 -8 -63 -1 -164 -70 -217 -149 -58 -86 -73
-136 -69 -225 l3 -78 -26 6 -26 5 29 -30 c21 -20 36 -28 49 -24 11 4 19 3 18
-2 -6 -24 53 -135 73 -141 10 -2 15 -8 12 -13 -3 -5 4 -9 14 -9 11 0 25 -6 31
-14 7 -8 34 -20 61 -26 53 -13 59 -20 35 -40 -43 -35 18 -67 63 -33 15 11 32
30 37 42 6 14 17 21 30 19 11 -1 25 0 30 4 6 3 25 9 43 13 25 5 32 3 32 -9 0
-20 50 -46 89 -46 20 0 36 8 49 25 11 14 22 21 24 15 2 -6 22 -14 46 -17 28
-4 42 -11 42 -20 0 -8 7 -30 16 -49 19 -40 75 -64 100 -43 13 10 17 10 24 0 5
-10 9 -10 15 -2 3 7 15 9 26 6 10 -4 31 0 47 7 21 11 32 11 51 2 16 -9 32 -9
52 -2 43 15 54 34 51 97 -3 83 8 92 55 48 21 -20 44 -37 51 -37 6 0 13 -8 14
-17 1 -10 2 -25 3 -33 1 -8 4 -31 8 -51 6 -30 11 -36 27 -32 18 5 25 25 21 59
-1 8 29 9 98 6 89 -4 103 -2 139 18 36 20 64 52 44 49 -19 -3 -25 2 -12 11 12
8 9 10 -12 10 -16 0 -28 -5 -28 -12 0 -6 -8 -20 -17 -30 -16 -18 -16 -18 2
-12 13 5 16 4 11 -4 -8 -14 -66 -16 -66 -4 0 5 -6 9 -12 9 -83 6 -138 18 -138
30 0 11 5 13 18 7 9 -4 36 -7 60 -7 55 0 84 26 84 77 0 38 6 44 26 24 8 -8 43
-12 101 -11 73 1 97 6 137 26 54 28 129 96 139 127 4 11 14 20 23 20 12 0 13
3 5 11 -9 9 -9 18 1 38 23 44 52 64 85 59 23 -3 28 -1 21 7 -7 8 0 25 20 54
34 46 32 61 -8 60 -22 0 -23 -2 -9 -8 17 -6 17 -8 3 -20 -9 -7 -16 -19 -16
-26 0 -7 -17 -28 -37 -46 l-38 -33 -3 54 c-2 30 1 56 7 58 9 3 -5 61 -18 72
-17 13 -41 62 -41 80 0 12 -4 19 -9 16 -5 -3 -29 10 -53 30 -89 73 -78 69
-193 68 -78 -1 -83 -1 -35 6 30 4 43 7 29 8 -37 3 -48 20 -42 70 l5 44 -26
-17 c-24 -16 -52 -13 -41 5 3 4 -1 10 -9 13 -19 7 -56 -3 -56 -15 0 -5 -7 -2
-16 6 -14 15 -17 14 -32 -1 -16 -16 -17 -15 -20 13 -2 16 -8 33 -12 38 -12 12
-39 -11 -53 -44 -10 -24 -10 -24 -19 17 -5 25 -21 55 -39 73 -36 36 -54 39
-45 8 3 -13 6 -27 7 -33 0 -5 4 1 8 15 l7 25 18 -27 c21 -32 31 -95 22 -133
-7 -26 -7 -25 -44 22 -32 41 -37 55 -37 101 0 56 0 58 -11 41z m-204 -108 c7
11 12 11 22 1 6 -6 23 -12 37 -12 13 0 46 -10 72 -22 35 -17 52 -33 65 -60 9
-21 21 -38 26 -38 4 0 8 -11 8 -24 0 -14 4 -36 10 -50 6 -17 6 -26 -1 -26 -6
0 -6 -7 1 -21 10 -17 8 -21 -9 -26 -12 -3 -17 -11 -14 -19 8 -21 -6 -64 -21
-64 -7 0 -20 -8 -29 -18 -9 -10 -28 -19 -43 -20 -26 -2 -27 -1 -9 18 9 10 22
18 28 17 6 -1 12 3 12 8 1 6 5 18 10 28 11 25 -1 33 -20 13 -21 -21 -41 -20
-55 2 -8 13 -10 13 -9 2 3 -33 -2 -38 -33 -35 -18 2 -37 -1 -43 -5 -5 -4 -24
-9 -41 -12 -25 -3 -31 -1 -26 11 4 11 1 13 -12 8 -12 -5 -16 -3 -13 5 2 7 -3
18 -12 25 -20 15 -31 16 -31 2 0 -5 4 -8 9 -5 12 8 21 -17 15 -41 -4 -13 5
-26 27 -42 17 -13 29 -19 25 -12 -5 7 -1 9 8 5 9 -3 16 -9 16 -13 0 -4 17 -6
38 -4 33 3 35 2 13 -7 -22 -10 -53 -8 -103 6 -10 3 -18 12 -18 19 0 8 -9 19
-19 25 -32 17 -38 11 -11 -11 16 -13 18 -17 5 -10 -60 32 -67 51 -32 90 18 21
19 23 2 11 -11 -8 -22 -18 -25 -22 -8 -11 -30 6 -35 28 -2 10 -9 36 -14 58
-12 48 -2 75 41 111 18 15 32 30 30 32 -2 2 8 13 23 24 14 12 23 24 21 28 -9
14 11 32 40 37 16 3 30 7 33 10 2 2 11 -1 18 -8 11 -9 16 -9 23 3z m-538 -253
c41 -8 57 -16 54 -25 -3 -7 1 -13 9 -13 8 0 15 -9 15 -21 0 -15 5 -19 19 -14
24 7 56 -52 39 -72 -6 -7 -7 -13 -2 -13 10 0 11 -51 2 -66 -3 -5 -6 -28 -6
-51 -1 -43 -33 -94 -56 -89 -6 2 -7 1 -3 -2 4 -2 3 -10 -4 -18 -6 -8 -16 -11
-23 -7 -17 11 -37 12 -30 2 3 -5 10 -6 16 -3 6 4 9 1 6 -7 -3 -8 -11 -14 -19
-14 -8 0 -17 -4 -21 -9 -10 -14 -124 -20 -132 -7 -4 6 -17 11 -30 11 -25 0
-122 58 -112 67 3 3 1 12 -5 20 -9 9 -8 13 0 13 6 0 11 8 11 18 0 13 -2 14 -9
4 -6 -11 -10 -10 -15 3 -4 11 0 22 10 30 16 11 16 12 0 18 -10 4 -15 11 -12
16 4 5 -1 17 -10 25 -21 22 -7 20 22 -3 13 -10 20 -22 16 -27 -4 -5 1 -2 11 5
9 7 17 15 17 17 0 2 -19 12 -42 23 -24 11 -35 20 -25 21 9 0 17 5 17 11 0 5
-4 7 -10 4 -6 -4 -10 7 -10 25 0 37 46 100 73 100 10 0 27 5 38 11 15 7 24 7
34 -1 10 -8 15 -8 20 0 18 29 65 35 147 18z m806 -343 c-2 -8 13 -23 32 -33
43 -23 62 -71 47 -113 -10 -25 -13 -26 -31 -14 -12 9 -24 11 -30 6 -12 -10
-81 -23 -72 -14 3 4 -3 12 -14 20 -36 25 -21 80 28 108 15 9 19 14 10 11 -21
-6 -22 2 -3 28 10 13 11 25 4 43 -15 39 -11 41 11 5 11 -18 19 -40 18 -47z
m-303 9 c8 -10 15 -25 15 -31 0 -7 7 -13 16 -13 8 0 13 -4 10 -9 -7 -10 17
-21 45 -21 30 0 77 -27 81 -47 5 -21 -19 -85 -35 -95 -15 -9 -106 43 -113 66
-4 11 2 29 15 46 l20 28 -29 12 c-17 7 -27 17 -23 23 3 6 -4 3 -16 -5 -18 -13
-30 -14 -59 -6 -48 13 -49 14 -27 38 10 11 13 20 7 20 -7 0 -12 4 -12 9 0 18
89 6 105 -15z m27 -253 c14 -14 27 -17 42 -12 11 4 37 7 56 7 30 -1 35 -5 38
-28 4 -35 -36 -63 -74 -54 -20 5 -30 2 -41 -14 -26 -38 -120 -17 -97 22 4 7
-4 3 -18 -9 -24 -23 -54 -29 -74 -15 -20 13 -36 54 -30 78 6 21 12 24 51 24
24 0 50 -6 56 -13 10 -10 17 -9 37 10 30 28 28 28 54 4z"/>
<path d="M4474 2588 c-5 -18 -9 -37 -9 -43 0 -5 -7 -13 -15 -17 -12 -5 -12 -7
3 -7 9 -1 17 -6 17 -12 0 -6 -7 -8 -16 -5 -10 4 -13 2 -8 -7 5 -8 2 -7 -9 2
-10 8 -15 16 -13 19 10 9 -57 60 -93 71 -56 16 -173 14 -197 -4 -10 -8 -26
-15 -35 -15 -21 0 -73 -57 -99 -110 -20 -39 -24 -42 -31 -25 -5 13 -8 -3 -8
-46 -2 -124 33 -166 219 -265 206 -109 233 -137 228 -242 -3 -61 3 -79 16 -45
6 15 8 15 16 3 16 -25 12 108 -4 139 -18 35 -77 87 -122 109 l-34 16 27 12 28
13 -32 -6 c-18 -3 -39 -1 -45 4 -7 6 -26 13 -42 17 -23 6 -26 10 -16 16 8 5
19 5 26 0 6 -6 14 -7 18 -3 3 4 16 8 27 10 16 2 20 -1 15 -12 -3 -9 -2 -14 3
-11 5 3 11 15 14 27 3 11 3 18 0 15 -3 -3 -12 2 -20 10 -8 8 -19 12 -24 9 -5
-4 -9 -1 -9 4 0 6 -19 12 -42 12 -26 1 -34 3 -19 6 22 4 20 7 -20 30 -31 17
-56 24 -89 22 -66 -3 -70 -1 -68 25 1 14 6 22 10 20 12 -8 39 42 32 60 -8 20
-24 21 -24 1 0 -8 -5 -15 -11 -15 -5 0 -8 4 -5 9 4 5 0 11 -6 14 -7 2 -1 8 15
12 15 4 27 12 27 19 0 6 5 4 10 -4 7 -11 10 -7 10 18 0 41 22 84 56 111 21 16
41 21 90 21 71 0 108 -11 143 -43 31 -29 61 -94 61 -134 0 -31 2 -33 35 -33
l35 0 0 63 c0 34 3 92 7 130 6 72 -9 95 -23 35z"/>
<path d="M2070 2593 c0 -18 8 -23 38 -29 20 -4 40 -12 44 -18 4 -6 8 -180 8
-386 0 -225 4 -381 10 -390 7 -10 10 8 10 60 2 122 10 353 13 374 4 20 33 46
53 46 8 0 14 -17 16 -42 l3 -43 70 6 c66 5 67 6 18 7 l-53 2 0 191 0 191 109
-4 c60 -1 107 -5 105 -7 -2 -2 11 -11 28 -20 51 -26 70 -61 79 -148 4 -43 8
-80 8 -83 1 -3 14 -5 30 -5 16 0 27 5 24 10 -2 6 5 11 16 12 14 1 17 -3 14
-18 -4 -15 -14 -19 -48 -19 -42 0 -64 -18 -49 -41 3 -5 0 -8 -8 -7 -7 2 -12
-3 -10 -10 1 -8 -2 -11 -7 -7 -6 3 -16 -3 -23 -14 -10 -16 -15 -18 -27 -8 -12
10 -13 9 -7 -2 7 -10 3 -12 -15 -6 -19 5 -21 4 -9 -4 12 -9 11 -11 -7 -11 -12
0 -23 5 -25 12 -3 9 -6 9 -12 0 -4 -7 -2 -12 3 -12 6 0 11 -8 11 -19 0 -18 3
-18 80 4 147 42 192 91 197 220 2 50 0 63 -6 45 l-9 -25 -7 23 c-7 22 -29 30
-39 13 -7 -11 -54 9 -61 27 -2 7 4 12 18 13 17 1 16 3 -8 9 -28 7 -27 8 15 10
32 2 37 4 18 7 -16 2 -28 9 -28 14 0 6 4 7 10 4 5 -3 7 0 4 8 -8 21 -69 46
-139 57 -83 14 -306 13 -282 -1 30 -17 20 -32 -18 -26 -26 4 -34 3 -28 -6 4
-7 -1 -5 -12 3 -16 13 -16 15 -2 18 36 7 14 18 -40 20 -32 1 -60 7 -65 14 -5
9 -8 6 -8 -9z"/>
<path d="M4663 2594 c-7 -18 12 -34 43 -34 46 0 49 -14 55 -339 3 -193 10
-319 17 -342 26 -79 152 -180 204 -163 14 4 18 3 13 -5 -5 -8 1 -10 21 -5 15
4 25 3 21 -2 -3 -5 34 -9 84 -9 49 0 89 4 89 8 0 5 9 6 20 2 27 -9 133 49 164
89 61 80 76 177 76 493 0 226 6 259 47 269 12 4 21 10 18 14 -2 4 7 5 20 2 17
-3 25 0 25 10 0 11 -9 13 -32 11 -62 -7 -79 -13 -72 -25 4 -7 3 -8 -5 -4 -6 4
-9 11 -6 15 2 5 -30 9 -73 10 -42 1 -78 6 -80 11 -2 6 -13 10 -24 10 -14 0
-19 -6 -16 -22 2 -16 12 -24 37 -29 67 -14 66 -9 66 -324 0 -265 1 -285 18
-285 11 0 17 -8 18 -22 3 -62 18 59 20 155 1 59 5 107 10 107 6 0 8 -50 5
-117 -5 -118 -28 -229 -46 -218 -6 4 -7 -1 -3 -11 5 -13 3 -15 -7 -9 -9 5 -11
4 -6 -4 13 -21 -64 -80 -132 -101 -132 -41 -280 -15 -370 64 -44 38 -64 94
-75 206 -9 92 -8 111 6 139 9 19 11 29 4 24 -7 -4 -6 0 2 10 7 9 10 17 5 17
-5 0 -1 5 10 11 14 9 20 8 26 -1 6 -9 9 -8 12 6 2 10 5 -34 7 -100 1 -76 6
-123 14 -130 9 -10 11 49 9 266 -2 177 1 285 7 297 7 12 26 22 51 26 32 5 40
11 40 28 0 15 -3 18 -8 10 -4 -7 -35 -14 -67 -16 -44 -3 -59 -8 -57 -18 1 -9
-2 -8 -11 4 -17 20 -33 22 -41 5 -5 -10 -7 -10 -12 0 -3 7 -25 12 -54 12 -27
0 -52 5 -55 10 -9 15 -25 12 -32 -6z"/>
<path d="M3419 2589 c-1 -8 -1 -18 0 -24 1 -5 -5 -2 -12 8 -8 9 -19 17 -24 17
-9 0 -98 -212 -105 -250 -2 -8 -5 -17 -8 -20 -12 -10 -69 -174 -64 -182 3 -4
1 -8 -5 -8 -6 0 -7 -7 -4 -17 5 -11 3 -14 -6 -8 -10 6 -11 2 -6 -15 5 -15 4
-20 -4 -16 -7 4 -9 1 -5 -8 3 -8 12 -12 19 -9 15 5 21 19 107 253 27 74 53
141 57 148 4 7 36 -70 76 -185 59 -170 88 -233 102 -220 2 2 -8 34 -21 70 -13
37 -22 67 -19 67 3 0 0 7 -7 15 -10 12 -10 15 1 15 12 0 12 2 0 9 -10 7 -11
13 -2 27 7 11 10 13 8 4 -4 -17 29 -50 50 -50 7 0 13 -5 13 -12 0 -6 2 -9 5
-6 3 2 -19 69 -48 149 l-53 144 -37 3 c-20 2 -37 7 -37 11 0 4 16 5 36 3 35
-4 36 -4 23 19 -7 13 -14 35 -15 48 -3 27 -13 41 -15 20z"/>
<path d="M1482 2552 c0 -4 -6 -23 -15 -42 -8 -19 -13 -38 -11 -42 3 -5 0 -8
-6 -8 -7 0 -10 -7 -6 -15 3 -8 1 -15 -5 -15 -6 0 -8 -4 -4 -9 3 -5 1 -12 -5
-16 -6 -4 -8 -11 -5 -16 4 -5 1 -9 -5 -9 -7 0 -10 -6 -8 -12 3 -7 -2 -19 -9
-27 -8 -7 -12 -20 -9 -27 3 -8 2 -14 -3 -14 -8 0 -24 -41 -25 -65 -1 -5 -7
-16 -14 -24 -8 -8 -11 -22 -9 -33 3 -10 1 -15 -5 -12 -6 4 -8 -2 -3 -16 5 -15
4 -20 -4 -16 -10 7 -13 3 -15 -26 -1 -7 -7 -19 -13 -26 -7 -7 -13 -19 -13 -25
0 -7 4 -6 10 3 8 13 10 13 10 1 0 -12 3 -12 12 -3 7 7 20 12 29 12 13 0 33 44
85 185 38 103 71 179 75 173 4 -7 35 -92 69 -189 34 -98 68 -180 75 -183 11
-4 11 3 -1 37 -8 22 -12 47 -10 53 3 7 0 14 -7 17 -6 2 -1 6 11 9 12 4 20 2
16 -3 -3 -5 0 -9 5 -9 6 0 21 -10 33 -22 12 -12 19 -15 16 -7 -3 8 -11 30 -18
51 -10 26 -18 34 -29 30 -13 -5 -14 -3 -4 10 11 12 7 32 -20 106 -21 60 -37
92 -47 92 -12 0 -12 2 -2 9 11 7 10 10 -3 15 -9 3 -26 6 -38 7 l-22 0 21 9
c29 11 38 28 25 44 -6 7 -9 15 -7 17 2 2 -12 5 -32 5 -21 1 -27 0 -15 -3 27
-5 38 -32 17 -40 -20 -8 -36 9 -37 41 -1 14 -8 28 -14 31 -7 2 -12 1 -11 -3z"/>
<path d="M2261 1958 c0 -111 4 -185 9 -173 7 18 8 19 15 3 16 -41 20 -9 17
159 -2 125 -7 180 -15 185 -7 4 19 8 56 8 49 0 66 -3 61 -12 -5 -8 0 -9 14 -6
12 4 22 3 22 -1 0 -4 11 -13 24 -19 13 -6 40 -37 58 -69 35 -59 121 -258 133
-306 l7 -27 104 0 104 0 0 25 c0 19 -5 25 -22 24 -21 0 -21 -1 -4 -8 35 -13 3
-18 -83 -12 l-83 6 -15 40 c-40 105 -100 235 -130 283 -44 70 -90 91 -195 92
l-78 0 1 -192z"/>
<path d="M1416 2043 c-1 -1 -32 -3 -69 -4 -51 -2 -67 -5 -63 -15 3 -7 -8 -52
-24 -100 -17 -48 -29 -104 -29 -123 1 -20 3 -29 6 -20 3 11 12 15 28 11 23 -4
25 -1 25 29 0 19 12 69 27 112 l28 77 157 0 157 0 30 -97 c17 -54 34 -111 38
-128 l7 -30 4 38 c3 35 -49 219 -67 240 -6 6 -249 16 -255 10z"/>
<path d="M3168 2031 c4 -10 1 -12 -8 -6 -10 6 -12 4 -7 -7 3 -9 -8 -57 -24
-107 -31 -96 -35 -123 -20 -118 5 1 17 -7 25 -18 14 -19 15 -18 4 11 -10 27
-7 45 18 125 l30 94 171 3 171 2 31 -97 c17 -54 31 -105 31 -114 0 -9 7 -19
15 -23 23 -8 19 17 -21 147 l-38 117 -120 0 c-67 1 -153 2 -192 3 -58 2 -70
-1 -66 -12z"/>
<path d="M4526 1964 c-3 -9 -6 -25 -6 -37 0 -43 -22 -98 -52 -133 -42 -48 -65
-59 -86 -42 -15 12 -16 11 -4 -4 12 -15 7 -18 -45 -29 -47 -9 -78 -9 -158 1
-55 8 -119 13 -142 12 l-43 -2 0 102 c0 70 3 98 10 88 9 -13 10 -13 11 0 0 10
3 8 9 -5 10 -23 13 -5 4 19 -3 9 -10 13 -15 10 -6 -3 -17 0 -25 7 -8 6 -16 10
-18 8 -2 -2 -6 -61 -8 -131 -5 -120 -4 -128 14 -128 10 0 18 3 18 8 0 4 29 7
64 8 36 0 63 -4 60 -8 -4 -5 10 -6 31 -2 22 4 36 3 32 -2 -3 -5 30 -9 74 -9
43 0 79 4 79 9 0 4 10 6 21 3 41 -11 133 52 164 114 9 16 19 59 22 94 6 63 2
82 -11 49z"/>
<path d="M2523 1459 c-7 -7 -53 -11 -137 -10 -110 2 -126 0 -126 -14 0 -9 -4
-14 -9 -10 -5 3 -13 0 -16 -6 -5 -7 -12 -3 -22 10 -8 12 -19 21 -25 21 -6 0
-4 -8 5 -18 15 -16 17 -48 17 -240 0 -201 -2 -222 -17 -222 -19 0 -9 -13 12
-16 13 -2 15 18 15 117 0 88 3 118 11 113 8 -5 10 1 7 20 -4 17 -1 25 6 23 7
-2 12 -52 14 -145 l3 -141 -38 -4 c-21 -2 44 -4 144 -5 l182 -2 6 48 c15 120
15 118 4 99 -6 -9 -14 -15 -19 -12 -4 3 -11 -3 -14 -12 -4 -9 -1 -20 6 -25 9
-5 7 -8 -7 -8 -15 0 -16 -3 -7 -12 7 -7 12 -25 12 -40 l0 -28 -122 0 -123 0 3
121 c3 93 1 124 -10 130 -10 6 -10 11 0 21 8 8 12 47 12 120 l0 109 78 -3 c65
-2 81 -7 105 -27 15 -14 31 -38 35 -55 12 -46 36 -40 40 11 4 57 -9 108 -25
92z"/>
<path d="M1194 1442 c6 -10 -55 -58 -67 -54 -5 1 -6 -1 -3 -6 3 -5 -3 -18 -14
-29 -10 -12 -16 -24 -13 -27 4 -3 1 -6 -5 -6 -16 0 -35 -108 -29 -168 7 -69
49 -155 90 -186 37 -28 87 -49 87 -37 0 5 -11 12 -24 15 -74 18 -136 121 -136
224 0 54 4 67 23 84 12 11 16 17 10 13 -18 -9 -16 3 2 21 13 14 14 10 10 -33
-6 -58 5 -160 15 -143 5 8 10 2 14 -15 4 -14 4 -30 1 -36 -4 -5 5 -4 18 2 l25
11 -15 57 c-27 99 0 236 55 285 21 18 21 36 1 36 -6 0 -7 -4 -4 -10 4 -7 -3
-7 -20 0 -14 5 -24 6 -21 2z"/>
<path d="M1603 1436 c15 -12 17 -36 17 -244 0 -216 -1 -231 -17 -226 -15 5
-15 4 1 -6 29 -19 36 3 36 126 0 87 3 113 14 117 8 3 17 3 20 0 3 -4 6 -59 6
-124 0 -106 2 -117 18 -115 15 3 17 17 20 114 l3 112 125 0 125 0 -3 -112 c-3
-107 -4 -113 -23 -110 -27 5 -14 -7 14 -13 21 -4 21 -2 21 146 0 122 3 149 14
149 8 0 16 6 19 13 6 17 17 -112 18 -220 1 -82 3 -90 18 -81 14 8 16 39 16
249 l0 239 -70 0 c-66 0 -68 -1 -47 -16 20 -14 22 -24 22 -104 l0 -89 -42 -4
-43 -4 43 -1 c23 -1 42 -6 42 -12 0 -6 -54 -10 -142 -10 -117 1 -140 3 -126
13 13 10 17 35 20 120 l3 107 -70 0 c-60 -1 -68 -2 -52 -14z"/>
<path d="M2800 1215 c0 -200 -2 -236 -15 -241 -8 -4 -13 -10 -10 -15 3 -4 12
-6 20 -2 12 4 15 31 15 143 0 131 1 138 23 154 15 12 16 15 5 12 -10 -3 -20
-1 -23 4 -4 6 3 10 14 10 21 0 35 -13 24 -24 -11 -11 -12 -36 -2 -36 6 0 9 -6
8 -12 -1 -7 -1 -68 0 -135 1 -93 4 -121 14 -118 17 7 12 476 -6 487 -7 4 -24
8 -39 8 l-28 0 0 -235z"/>
<path d="M3285 1440 c-8 -12 -7 -481 1 -488 4 -4 4 -2 0 5 -3 6 -2 14 4 18 6
4 10 52 10 116 0 103 9 149 29 149 5 0 10 -59 10 -132 1 -89 6 -135 14 -140 6
-4 12 -6 12 -5 0 1 -2 110 -5 241 -4 182 -8 240 -18 244 -7 2 -12 0 -11 -5 3
-18 -1 -33 -10 -33 -6 0 -8 8 -6 18 3 18 -21 27 -30 12z"/>
<path d="M3633 1436 c17 -13 18 -31 15 -243 -2 -179 0 -230 10 -230 9 0 12 29
12 112 0 61 3 114 6 118 3 3 12 3 20 0 11 -4 14 -30 14 -113 0 -77 4 -109 13
-113 9 -3 11 45 9 225 -2 211 -1 231 15 244 15 11 15 13 3 14 -19 0 -51 -35
-42 -46 4 -4 2 -4 -4 -1 -7 4 -15 0 -18 -9 -4 -11 -2 -15 8 -11 11 4 14 -2 14
-23 -1 -21 -5 -27 -16 -22 -10 3 -13 1 -8 -6 4 -7 2 -12 -3 -12 -15 0 -14 27
2 33 9 3 9 7 0 18 -10 12 -8 22 7 47 l20 32 -48 0 c-42 -1 -45 -2 -29 -14z"/>
<path d="M3886 1425 c13 -21 15 -53 12 -223 -2 -150 -6 -203 -17 -215 -11 -14
-11 -17 0 -17 33 1 38 17 42 120 l3 105 2 -110 c2 -98 4 -112 22 -123 23 -14
27 -5 5 12 -13 9 -15 42 -13 215 l3 205 29 -45 c92 -140 299 -429 304 -425 3
3 -38 69 -90 146 -69 101 -94 146 -91 161 4 16 8 18 14 7 5 -7 9 -9 9 -4 0 4
-16 30 -36 57 -19 27 -33 53 -29 59 4 6 3 9 -2 8 -13 -5 -50 37 -47 54 1 12
-6 15 -30 14 -18 -2 -36 4 -42 12 -9 12 -10 8 -8 -19 2 -19 1 -25 -2 -14 -8
28 -24 45 -40 45 -12 0 -11 -5 2 -25z"/>
<path d="M4255 1427 c11 -17 14 -67 16 -219 1 -109 5 -196 9 -193 11 7 24 -34
21 -62 -1 -13 2 -23 8 -23 8 0 11 75 11 235 l0 236 26 24 c30 28 16 33 -21 9
-14 -9 -25 -12 -25 -6 0 6 5 12 11 14 6 2 -7 4 -30 5 -40 2 -40 1 -26 -20z"/>
<path d="M4665 1438 c-5 -14 -99 -260 -110 -290 -4 -10 -3 -18 2 -18 12 0 32
44 72 154 l28 79 20 -54 c11 -30 28 -77 37 -104 9 -28 25 -56 35 -62 18 -11
19 -10 14 22 -4 28 -2 35 11 35 9 0 16 -5 16 -11 0 -5 5 -7 11 -3 8 5 8 9 -1
14 -7 4 -13 19 -13 34 -1 14 -6 26 -11 26 -4 0 -5 7 -2 16 4 10 2 13 -6 8 -8
-5 -9 0 -5 15 4 18 3 20 -9 10 -8 -6 -17 -9 -21 -5 -3 3 -2 6 4 6 6 0 13 9 16
21 4 16 3 18 -8 9 -8 -7 -22 -10 -32 -7 -14 4 -13 5 5 6 35 2 23 55 -13 58
-19 1 -19 1 -2 -11 20 -16 22 -26 4 -26 -15 0 -41 65 -32 80 3 5 4 10 0 10 -3
0 -8 -6 -10 -12z"/>
<path d="M5009 1443 c0 -5 0 -111 -1 -237 0 -224 1 -230 21 -238 21 -7 21 -5
22 145 0 84 3 146 6 140 2 -7 9 -13 15 -13 6 0 3 11 -6 25 -21 33 -20 38 4 18
18 -16 20 -30 20 -181 l0 -164 -27 2 c-16 1 -35 1 -43 -1 -8 -1 32 -5 90 -9
58 -3 114 -2 125 2 11 4 -14 7 -57 7 l-78 1 0 250 0 249 75 -1 c41 -1 75 -6
75 -11 0 -5 8 -6 17 -3 10 4 14 4 10 0 -4 -4 2 -13 12 -20 46 -33 78 -164 62
-261 -10 -64 -3 -81 27 -62 19 12 31 54 35 122 2 28 17 39 17 12 0 -8 5 -15
10 -15 13 0 13 -65 -1 -113 -15 -56 -73 -116 -125 -129 -24 -7 -41 -15 -38
-19 6 -10 62 9 96 33 66 46 105 155 93 265 -6 60 -8 63 -33 64 -26 0 -26 1 -4
9 12 5 22 11 22 14 0 8 -45 -7 -52 -18 -5 -8 -8 -7 -9 2 -1 6 -2 16 -3 21 -3
22 -69 92 -82 87 -8 -3 -13 0 -11 6 1 6 -11 15 -28 19 -39 12 -222 10 -204 -2
11 -7 10 -9 -3 -9 -10 0 -18 5 -18 10 0 11 -30 14 -31 3z"/>
</g>
</svg>
